<svg preserveAspectRatio="none" overflow="visible" style="display: block;" width="22.8" height="19.8" viewBox="0 0 22.8 19.8" fill="none" xmlns="http://www.w3.org/2000/svg">
<g id="Group">
<path id="Vector" d="M20.4 3.4V0.4H2.4V3.4" stroke="#71717A" stroke-width="0.8" stroke-miterlimit="10" stroke-linecap="square"/>
<path id="Vector_2" d="M22.4 3.4H0.4V19.4H22.4V3.4Z" stroke="#71717A" stroke-width="0.8" stroke-miterlimit="10" stroke-linecap="square"/>
<path id="Vector_3" d="M11.4 13.4C12.5046 13.4 13.4 12.5046 13.4 11.4C13.4 10.2954 12.5046 9.4 11.4 9.4C10.2954 9.4 9.4 10.2954 9.4 11.4C9.4 12.5046 10.2954 13.4 11.4 13.4Z" stroke="#71717A" stroke-width="0.8" stroke-miterlimit="10" stroke-linecap="square"/>
<path id="Vector_4" d="M16.4 6.4H6.4C6.4 8.057 5.057 9.4 3.4 9.4V13.4C5.057 13.4 6.4 14.743 6.4 16.4H16.4C16.4 14.743 17.743 13.4 19.4 13.4V9.4C17.743 9.4 16.4 8.057 16.4 6.4Z" stroke="#71717A" stroke-width="0.8" stroke-miterlimit="10" stroke-linecap="square"/>
</g>
</svg>
